{
  "accessors": [
    {
      "bufferView": 2,
      "componentType": 5126,
      "count": 2026,
      "max": [
        0.8821390271186829,
        0.8052930235862732,
        4.118803977966309
      ],
      "min": [
        -0.9221339821815491,
        -1.0025060176849365,
        3.8942739963531494
      ],
      "type": "VEC3"
    },
    {
      "bufferView": 2,
      "byteOffset": 24312,
      "componentType": 5126,
      "count": 2026,
      "max": [
        0.9997535347938538,
        0.9998213648796082,
        0.9998213648796082
      ],
      "min": [
        -1.0,
        -0.9998213648796082,
        -0.9998213648796082
      ],
      "type": "VEC3"
    },
    {
      "bufferView": 1,
      "componentType": 5126,
      "count": 2026,
      "max": [
        0.0,
        0.0
      ],
      "min": [
        0.0,
        0.0
      ],
      "type": "VEC2"
    },
    {
      "bufferView": 0,
      "componentType": 5125,
      "count": 3882,
      "type": "SCALAR"
    },
    {
      "bufferView": 2,
      "byteOffset": 48624,
      "componentType": 5126,
      "count": 9731,
      "max": [
        0.9176830053329468,
        0.8048120141029358,
        4.123715877532959
      ],
      "min": [
        -0.8855519890785217,
        -1.00273597240448,
        3.894278049468994
      ],
      "type": "VEC3"
    },
    {
      "bufferView": 2,
      "byteOffset": 165396,
      "componentType": 5126,
      "count": 9731,
      "max": [
        1.0,
        0.9999886751174927,
        0.999987006187439
      ],
      "min": [
        -0.9998718500137329,
        -0.9999412298202515,
        -0.9999357461929321
      ],
      "type": "VEC3"
    },
    {
      "bufferView": 1,
      "byteOffset": 16208,
      "componentType": 5126,
      "count": 9731,
      "max": [
        0.0,
        0.0
      ],
      "min": [
        0.0,
        0.0
      ],
      "type": "VEC2"
    },
    {
      "bufferView": 0,
      "byteOffset": 15528,
      "componentType": 5125,
      "count": 15480,
      "type": "SCALAR"
    },
    {
      "bufferView": 2,
      "byteOffset": 282168,
      "componentType": 5126,
      "count": 3012,
      "max": [
        0.08799400180578232,
        0.7881590127944946,
        4.104613780975342
      ],
      "min": [
        -0.5858200192451477,
        0.090768001973629,
        3.905358076095581
      ],
      "type": "VEC3"
    },
    {
      "bufferView": 2,
      "byteOffset": 318312,
      "componentType": 5126,
      "count": 3012,
      "max": [
        0.9997900128364563,
        0.9999498128890991,
        0.9998251795768738
      ],
      "min": [
        -0.9998223185539246,
        -0.9998902082443237,
        -0.9998251795768738
      ],
      "type": "VEC3"
    },
    {
      "bufferView": 1,
      "byteOffset": 94056,
      "componentType": 5126,
      "count": 3012,
      "max": [
        0.0,
        0.0
      ],
      "min": [
        0.0,
        0.0
      ],
      "type": "VEC2"
    },
    {
      "bufferView": 0,
      "byteOffset": 77448,
      "componentType": 5125,
      "count": 4656,
      "type": "SCALAR"
    }
  ],
  "asset": {
    "extras": {
      "author": "leonleonar (https://sketchfab.com/leonleonar)",
      "license": "CC-BY-4.0 (http://creativecommons.org/licenses/by/4.0/)",
      "source": "https://sketchfab.com/3d-models/gato-ying-yang-obj-599d69cd2ce440daa2e444cfc7da5340",
      "title": "Gato ying yang obj"
    },
    "generator": "Sketchfab-13.17.0",
    "version": "2.0"
  },
  "bufferViews": [
    {
      "buffer": 0,
      "byteLength": 96072,
      "name": "floatBufferViews",
      "target": 34963
    },
    {
      "buffer": 0,
      "byteLength": 118152,
      "byteOffset": 96072,
      "byteStride": 8,
      "name": "floatBufferViews",
      "target": 34962
    },
    {
      "buffer": 0,
      "byteLength": 354456,
      "byteOffset": 214224,
      "byteStride": 12,
      "name": "floatBufferViews",
      "target": 34962
    }
  ],
  "buffers": [
    {
      "byteLength": 568680,
      "uri": "scene.bin"
    }
  ],
  "materials": [
    {
      "doubleSided": true,
      "name": "Material.001",
      "pbrMetallicRoughness": {
        "baseColorFactor": [
          0.8,
          0.8,
          0.8,
          1.0
        ],
        "metallicFactor": 0.0,
        "roughnessFactor": 0.7628584612599261
      }
    },
    {
      "doubleSided": true,
      "name": "Material.002",
      "pbrMetallicRoughness": {
        "baseColorFactor": [
          0.0,
          0.0,
          0.0,
          1.0
        ],
        "metallicFactor": 0.0,
        "roughnessFactor": 0.7628584612599261
      }
    },
    {
      "doubleSided": true,
      "name": "None",
      "pbrMetallicRoughness": {
        "baseColorFactor": [
          0.8,
          0.8,
          0.8,
          1.0
        ],
        "metallicFactor": 0.0,
        "roughnessFactor": 0.6217033563987296
      }
    }
  ],
  "meshes": [
    {
      "name": "Object_0",
      "primitives": [
        {
          "attributes": {
            "NORMAL": 1,
            "POSITION": 0,
            "TEXCOORD_0": 2
          },
          "indices": 3,
          "material": 0,
          "mode": 4
        }
      ]
    },
    {
      "name": "Object_1",
      "primitives": [
        {
          "attributes": {
            "NORMAL": 5,
            "POSITION": 4,
            "TEXCOORD_0": 6
          },
          "indices": 7,
          "material": 1,
          "mode": 4
        }
      ]
    },
    {
      "name": "Object_2",
      "primitives": [
        {
          "attributes": {
            "NORMAL": 9,
            "POSITION": 8,
            "TEXCOORD_0": 10
          },
          "indices": 11,
          "material": 2,
          "mode": 4
        }
      ]
    }
  ],
  "nodes": [
    {
      "children": [
        1
      ],
      "matrix": [
        1.0,
        0.0,
        0.0,
        0.0,
        0.0,
        2.220446049250313e-16,
        -1.0,
        0.0,
        0.0,
        1.0,
        2.220446049250313e-16,
        0.0,
        0.0,
        0.0,
        0.0,
        1.0
      ],
      "name": "Sketchfab_model"
    },
    {
      "children": [
        2,
        3,
        4
      ],
      "name": "Gato ying yang.obj.cleaner.materialmerger.gles"
    },
    {
      "mesh": 0,
      "name": "Object_2"
    },
    {
      "mesh": 1,
      "name": "Object_3"
    },
    {
      "mesh": 2,
      "name": "Object_4"
    }
  ],
  "scene": 0,
  "scenes": [
    {
      "name": "Sketchfab_Scene",
      "nodes": [
        0
      ]
    }
  ]
}
